<?xml version="1.0" standalone="no"?>
<!DOCTYPE svg PUBLIC "-//W3C//DTD SVG 20010904//EN"
 "http://www.w3.org/TR/2001/REC-SVG-20010904/DTD/svg10.dtd">
<svg version="1.0" xmlns="http://www.w3.org/2000/svg"
 width="500.000000pt" height="496.000000pt" viewBox="0 0 500.000000 496.000000"
 preserveAspectRatio="xMidYMid meet">

<g transform="translate(0.000000,496.000000) scale(0.100000,-0.100000)"
fill="#FFFFFF" stroke="none">
<path d="M2255 4944 c-346 -40 -587 -103 -875 -230 -211 -94 -398 -232 -626
-467 -779 -797 -968 -1989 -469 -2953 113 -219 228 -377 409 -562 187 -191
371 -329 598 -447 300 -155 659 -257 952 -270 l101 -4 -93 9 c-401 39 -769
167 -1087 378 -782 518 -1144 1445 -916 2346 103 405 300 748 610 1057 158
157 292 264 448 355 54 31 146 85 204 120 404 238 747 340 1185 351 399 11
712 -56 1049 -222 241 -119 412 -243 595 -431 557 -573 754 -1395 524 -2186
-35 -120 -92 -265 -153 -386 -28 -56 -49 -102 -46 -102 8 0 110 209 148 305
83 209 143 444 168 664 15 134 6 503 -15 624 -44 251 -109 454 -215 672 -124
253 -261 445 -461 646 -190 191 -387 334 -635 459 -381 193 -762 282 -1190
279 -99 -1 -193 -4 -210 -5z"/>
<path d="M2729 4069 c-15 -5 -32 -22 -38 -37 -6 -15 -22 -121 -36 -237 -57
-470 -139 -1021 -160 -1072 -8 -18 -42 -77 -77 -130 -263 -407 -643 -723 -978
-815 -71 -19 -109 -23 -235 -23 -131 0 -157 3 -205 23 -127 51 -214 157 -246
299 -13 58 -15 106 -12 212 3 75 8 143 12 152 5 10 33 19 94 28 195 28 417 98
617 196 442 216 725 529 776 858 14 85 6 214 -16 278 -70 202 -377 258 -705
128 -295 -117 -637 -421 -870 -775 -189 -286 -295 -575 -307 -834 -9 -208 34
-364 139 -503 121 -162 292 -241 548 -253 467 -23 982 264 1345 751 36 48 65
82 65 76 0 -25 -92 -442 -131 -591 -59 -228 -108 -386 -239 -765 -64 -187
-138 -413 -165 -502 l-48 -161 21 -52 c31 -74 86 -145 128 -165 49 -23 103 -8
139 38 119 157 356 932 646 2115 75 303 84 333 136 435 142 278 379 570 577
711 129 92 233 129 357 129 74 0 95 -4 143 -27 85 -42 137 -116 172 -247 23
-85 23 -284 0 -392 -92 -427 -400 -818 -790 -1003 -133 -63 -224 -84 -398 -92
-86 -5 -152 -12 -159 -19 -23 -23 2 -54 64 -84 74 -34 160 -49 284 -49 340 0
634 131 909 405 267 266 448 609 499 945 60 391 -90 705 -390 820 -90 35 -271
40 -386 11 -113 -28 -209 -77 -316 -160 -166 -130 -322 -314 -460 -542 -35
-57 -63 -101 -63 -97 0 4 18 96 40 205 47 236 80 456 80 535 0 110 -60 217
-145 258 -51 25 -175 36 -216 19z m-806 -280 c35 -16 47 -50 47 -132 0 -146
-60 -283 -189 -439 -149 -178 -380 -348 -670 -493 -125 -63 -291 -135 -310
-135 -18 0 50 178 124 328 191 384 467 702 718 828 37 19 84 38 105 43 54 13
147 13 175 0z"/>
<path d="M4639 1268 c-7 -13 -19 -34 -27 -48 -14 -24 -13 -24 3 -5 20 24 48
75 41 75 -3 0 -11 -10 -17 -22z"/>
<path d="M4565 1148 c-16 -24 -22 -38 -14 -31 15 12 53 73 46 73 -2 0 -17 -19
-32 -42z"/>
<path d="M4439 973 c-13 -16 -12 -17 4 -4 9 7 17 15 17 17 0 8 -8 3 -21 -13z"/>
<path d="M4399 923 c-13 -16 -12 -17 4 -4 9 7 17 15 17 17 0 8 -8 3 -21 -13z"/>
<path d="M2598 13 c7 -3 16 -2 19 1 4 3 -2 6 -13 5 -11 0 -14 -3 -6 -6z"/>
<path d="M2638 13 c7 -3 16 -2 19 1 4 3 -2 6 -13 5 -11 0 -14 -3 -6 -6z"/>
<path d="M2403 3 c26 -2 68 -2 95 0 26 2 4 3 -48 3 -52 0 -74 -1 -47 -3z"/>
</g>
</svg>
